<?xml version="1.0" encoding="utf-8"?>
<!-- Generator: Adobe Illustrator 27.3.1, SVG Export Plug-In . SVG Version: 6.00 Build 0)  -->
<svg version="1.1" id="Capa_1" xmlns="http://www.w3.org/2000/svg" xmlns:xlink="http://www.w3.org/1999/xlink" x="0px" y="0px"
	 viewBox="0 0 280 280" style="enable-background:new 0 0 280 280;" xml:space="preserve">
<style type="text/css">
	.st0{opacity:0.34;fill:#2C3357;}
	.st1{fill:#2C3357;}
	.st2{fill:#06BCE7;}
</style>
<path class="st0" d="M274.26,280H5.74C2.57,280,0,277.43,0,274.26V5.74C0,2.57,2.57,0,5.74,0h268.53c3.17,0,5.74,2.57,5.74,5.74
	v268.53C280,277.43,277.43,280,274.26,280z"/>
<g>
	<path class="st1" d="M178.16,114.86c0,5.37-0.12,10.75,0.06,16.12c0.07,1.98-0.85,2.84-2.34,3.56c-4.46,2.15-8.92,4.31-13.38,6.47
		c-6.21,3.01-12.41,6.04-18.63,9.01c-1,0.48-2.05,0.84-2.98,1.45c-0.4,0.26-0.73,0.33-1.11,0.05c-0.34-0.25-0.41-0.65-0.27-0.98
		c0.32-0.75,0.18-1.53,0.18-2.29c0.01-10.66,0.02-21.31-0.02-31.97c0-1.04,0.31-1.62,1.21-2.14c2.72-1.58,5.61-2.79,8.4-4.21
		c3.66-1.86,7.4-3.58,11.11-5.33c2.16-1.02,4.2-2.36,6.38-3.24c3.45-1.4,6.68-3.19,10.02-4.78c0.92-0.44,1.39-0.27,1.38,0.92
		C178.14,103.29,178.16,109.08,178.16,114.86z"/>
	<path class="st2" d="M155.65,82.12c1.1-0.14,2.21-0.37,3.31-0.39c6.42-0.11,12.85-0.16,19.27-0.27c1.01-0.02,1.37,0.31,1.35,1.33
		c-0.04,3.32-0.03,6.65-0.01,9.97c0.01,0.97-0.32,1.31-1.2,0.79c-0.81-0.48-1.77-0.6-2.55-1.2c-0.71-0.54-1.34-0.62-2.39-0.09
		c-4.93,2.49-10.06,4.58-14.99,7.07c-4.74,2.4-9.5,4.75-14.28,7.06c-2.92,1.41-5.81,2.91-8.76,4.25c-1.09,0.49-1.46,1.1-1.45,2.27
		c0.04,11.07,0.02,22.13,0.02,33.2c0,0.45,0.06,0.94-0.09,1.35c-0.16,0.43-0.43,0.93-1.12,0.55c-4.09-2.28-8.34-4.23-12.61-6.14
		c-0.87-0.39-1.32-1.02-1.31-2.11c0.05-11.52,0.07-23.04-0.02-34.56c-0.02-1.95,1.52-1.99,2.51-2.48
		c5.12-2.55,10.31-4.93,15.48-7.37c6.52-3.08,13.03-6.15,19.55-9.24c0.65-0.31,1.24-0.74,1.88-1.06c0.86-0.42,0.53-0.71-0.06-1.05
		c-0.88-0.5-1.74-1.02-2.61-1.54C155.61,82.34,155.63,82.23,155.65,82.12z"/>
	<path class="st1" d="M61.65,188.71c-1.46,0-2.92-0.02-4.38,0.01c-0.71,0.02-1.12-0.16-1.11-0.97c0.03-2.09,0.02-4.19,0-6.28
		c0-0.69,0.27-0.97,0.99-0.94c6.78,0.27,13.57,0.2,20.36,0.19c0.8,0,1.12,0.23,1.17,1.07c0.21,3.36-0.07,6.71-1.23,9.82
		c-1.4,3.75-4.09,6.58-7.67,8.49c-5.29,2.83-11,2.95-16.77,2.52c-3.91-0.29-7.66-1.29-11.04-3.35c-3.76-2.29-6.52-5.59-7.52-9.82
		c-0.7-2.98-1.01-6.11-0.35-9.33c0.52-2.54,1.1-4.97,2.55-7.07c2.42-3.5,5.82-5.77,9.82-7.12c3.17-1.07,6.44-1.62,9.8-1.57
		c3.91,0.06,7.63,0.87,11.3,2.29c4.12,1.59,7.11,4.23,9.1,8.1c0.1,0.19,0.32,0.4,0.3,0.57c-0.12,0.86,1.2,1.53,0.51,2.3
		c-0.58,0.66-1.49-0.1-2.28-0.06c-2.23,0.12-4.47,0-6.7,0.06c-1.11,0.03-1.89-0.14-2.48-1.26c-0.92-1.72-2.57-2.9-4.3-3.48
		c-3.09-1.04-6.26-1.15-9.56-0.39c-4.41,1.01-7.25,5.43-7.53,9.31c-0.14,1.92-0.06,3.75,0.41,5.55c0.76,2.94,2.58,5.04,5.3,6.51
		c2.69,1.46,5.54,1.63,8.4,1.31c2.98-0.34,5.87-1.13,7.76-3.85c0.24-0.35,0.35-0.72,0.51-1.08c0.46-1,0.25-1.51-0.99-1.44
		c-1.45,0.08-2.91,0.02-4.37,0.02C61.65,188.79,61.65,188.75,61.65,188.71z"/>
	<path class="st1" d="M112.71,137.78c-3.47-1.65-6.88-3.48-10.45-4.89c-2.06-0.81-2.48-1.92-2.45-3.97
		c0.11-10.98,0.07-21.95,0.02-32.93c0-1.1,0.3-1.73,1.3-2.17c4.26-1.86,8.35-4.1,12.65-5.9c1.8-0.75,3.4-2.01,5.21-2.75
		c3-1.22,5.86-2.73,8.8-4.06c2.53-1.14,5.12-2.28,7.47-3.76c1.82-1.15,3.48-1.13,5.32-0.21c3.31,1.65,6.65,3.23,9.97,4.87
		c0.32,0.16,0.86,0.16,0.82,0.72c-0.03,0.45-0.48,0.51-0.77,0.64c-3.25,1.57-6.51,3.13-9.78,4.66c-3.36,1.57-6.7,3.18-10.04,4.78
		c-4.6,2.2-9.13,4.52-13.84,6.49c-0.97,0.41-1.86,1.02-2.85,1.44c-0.69,0.3-0.58,1.16-0.58,1.84c0,5.28,0,10.57,0,15.85
		c0,5.88,0,11.75-0.01,17.63c0,0.58,0.14,1.19-0.27,1.71C113.06,137.58,112.89,137.61,112.71,137.78z"/>
	<path class="st1" d="M120.21,180.73c-1.41,0-2.83-0.04-4.24,0.02c-0.94,0.04-1.36-0.35-1.66-1.23c-0.49-1.42-1.13-2.79-2.11-3.99
		c-1.71-2.11-4.09-2.87-6.59-3.19c-2.92-0.37-5.76,0.08-8.42,1.5c-2.15,1.14-3.21,3.17-3.97,5.2c-1,2.69-1.26,5.58-0.35,8.42
		c0.7,2.18,1.43,4.39,3.36,5.83c1.7,1.26,3.61,2.06,5.78,2.17c1.83,0.1,3.69,0.13,5.44-0.36c1.9-0.53,3.61-1.5,4.93-3.1
		c0.93-1.13,1.45-2.41,1.84-3.77c0.22-0.78,0.68-1.05,1.5-1.03c2.87,0.05,5.74,0.03,8.62,0.01c0.81,0,1.04-0.03,0.91,1.09
		c-0.4,3.31-1.96,6.01-4.05,8.37c-1.81,2.05-4.16,3.54-6.75,4.53c-4.65,1.79-9.49,2.34-14.41,1.81c-3.25-0.35-6.35-1.33-9.24-2.93
		c-4.04-2.22-6.83-5.52-8.16-9.85c-1.92-6.25-1.34-12.35,2.54-17.75c2.34-3.26,5.72-5.35,9.61-6.54c3.43-1.05,6.96-1.38,10.51-1.17
		c3.4,0.2,6.64,0.94,9.85,2.33c4.29,1.85,7.23,4.76,9.14,8.88c0.62,1.33,0.81,2.79,1.16,4.21c0.17,0.69-0.33,0.62-0.72,0.62
		c-1.5,0.01-3.01,0-4.51,0C120.21,180.79,120.21,180.76,120.21,180.73z"/>
	<path class="st1" d="M131.7,192.46c0.02-8.64,0.31-17.29,0.15-25.93c-0.01-0.67,0.18-0.91,0.81-0.9c3.55,0.08,7.1-0.07,10.65,0.11
		c3.14,0.17,6.29,0,9.43,0.09c3.05,0.09,5.94,0.61,8.63,2.38c2.16,1.42,3.44,5.82,3.1,7.92c-0.53,3.19-2.04,5.65-5.07,7.01
		c-0.26,0.12-0.54,0.25-0.53,0.54c0.02,0.38,0.46,0.42,0.7,0.51c1.58,0.6,2.98,1.41,4.21,2.63c1.17,1.16,1.44,2.58,1.58,4.01
		c0.29,2.85,0.03,5.7-1.95,7.95c-1.5,1.71-3.49,2.85-5.82,3.22c-1.32,0.21-2.6,0.62-3.98,0.62c-6.79-0.05-13.59-0.05-20.38,0
		c-1.22,0.01-1.57-0.39-1.55-1.56C131.74,198.2,131.7,195.33,131.7,192.46z M145.43,198.97c3.08-0.24,6.77,0.14,10.5-0.41
		c3.88-0.58,6.52-3.98,5.83-7.35c-0.46-2.21-1.32-4.34-4.37-4.88c-2.49-0.43-4.95-0.77-7.48-0.74c-4.37,0.05-8.75-0.03-13.12-0.06
		c-0.65,0-1.31-0.08-1.32,0.9c-0.05,3.87-0.12,7.73-0.2,11.59c-0.02,0.78,0.33,0.97,1.08,0.96
		C139.16,198.94,141.99,198.97,145.43,198.97z M145.75,181.88c0,0.02,0,0.05,0,0.07c1.73,0,3.46,0.05,5.19-0.01
		c2.06-0.07,4.15,0.21,6.12-0.71c1.28-0.6,2.47-1.45,3-2.68c0.68-1.57,0.62-3.39,0.35-5.08c-0.2-1.21-0.91-2.28-2.1-2.9
		c-1.71-0.89-3.62-1.07-5.45-1.14c-5.32-0.21-10.66-0.16-15.98-0.28c-1.11-0.02-1.44,0.37-1.43,1.42c0.04,3.37,0.05,6.74,0,10.11
		c-0.01,0.99,0.36,1.24,1.28,1.23C139.73,181.85,142.74,181.88,145.75,181.88z"/>
	<path class="st1" d="M188.63,203.46c-3.56,0.4-7.52-0.84-11.02-3.16c-3.31-2.2-5.72-5.15-6.93-9.21c-0.64-2.13-1.06-4.29-1.08-6.35
		c-0.04-3.53,0.53-7.07,2.39-10.28c1.85-3.19,4.49-5.49,7.61-7.21c2.18-1.2,4.7-1.6,7.18-1.89c3.45-0.39,6.91-0.14,10.15,0.96
		c6.62,2.23,10.83,6.77,12.21,13.75c0.6,3.02,0.66,5.93-0.15,8.99c-0.8,3.01-1.76,5.84-3.91,8.14c-2.4,2.57-5.19,4.45-8.67,5.42
		C194.07,203.27,191.76,203.41,188.63,203.46z M173.56,184.71c-0.17,2.26,0.12,4.34,1.08,6.39c1.89,4.03,4.82,6.96,9.02,8.24
		c4.05,1.23,8.25,1.07,12.32-0.3c3.19-1.07,5.62-3.06,7.45-5.89c1.41-2.17,1.91-4.54,2.2-7.06c0.55-4.79-0.5-9.01-3.88-12.56
		c-1.96-2.06-4.29-3.61-7.04-4.17c-2.91-0.59-5.89-0.64-8.88-0.19c-3.34,0.49-6.22,1.84-8.44,4.3
		C174.54,176.64,173.03,180.39,173.56,184.71z"/>
	<path class="st1" d="M210.9,202.28c1.51-2.17,3.37-4.05,5.02-6.11c1.93-2.4,4.08-4.62,5.9-7.13c1.03-1.42,2.33-2.65,3.54-3.93
		c0.62-0.66,0.89-1.11,0.12-1.98c-2.21-2.49-4.36-5.04-6.36-7.7c-1.92-2.55-4.25-4.79-5.94-7.51c-0.34-0.54-1.45-0.78-1.09-1.47
		c0.34-0.65,1.35-0.16,2.04-0.29c2.15-0.42,3.2,1.11,4.3,2.45c1.74,2.14,3.36,4.37,5.19,6.45c1.27,1.43,2.45,2.95,3.58,4.5
		c1.08,1.48,1.44,1.49,2.57,0.13c2.2-2.65,4.49-5.22,6.72-7.85c1.22-1.43,2.4-2.9,3.55-4.38c0.71-0.91,1.57-1.25,2.71-1.14
		c0.88,0.09,1.78,0.02,2.85,0.02c-1.06,1.9-2.43,3.24-3.65,4.69c-3.34,3.99-6.68,7.98-10.05,11.96c-0.71,0.84-0.64,1.49,0.09,2.32
		c3.73,4.26,7.25,8.7,10.73,13.16c0.83,1.06,1.79,2.02,2.7,3.01c0.43,0.47,0.8,0.94,0.84,1.68c-1.28,0-2.54,0.03-3.81-0.01
		c-1.15-0.04-1.46-1.17-2.02-1.84c-1.74-2.07-3.44-4.18-5.19-6.24c-1.71-2.01-3.26-4.15-5-6.13c-0.12-0.13-0.18-0.31-0.29-0.44
		c-1.24-1.46-1.66-1.49-2.81,0.07c-2.13,2.89-4.67,5.44-6.91,8.23c-1.37,1.71-2.86,3.32-4.19,5.07c-0.69,0.92-1.5,1.18-2.55,1.11
		c-0.86-0.05-1.73,0.17-2.57-0.15C210.91,202.65,210.9,202.47,210.9,202.28z"/>
	<path class="st2" d="M210.9,202.28c0,0.19,0.01,0.37,0.01,0.55c-0.1,0.21-0.39,0.18-0.4,0.09c-0.02-0.23,0.11-0.46,0.18-0.69
		c0.01-0.02,0.08-0.05,0.11-0.04C210.84,202.2,210.87,202.25,210.9,202.28z"/>
	<path class="st2" d="M112.71,137.78c0.17-0.17,0.35-0.19,0.53-0.01C112.99,138.01,112.86,138.02,112.71,137.78z"/>
</g>
</svg>
