<svg id="visual" viewBox="0 0 900 600" width="900" height="600" xmlns="http://www.w3.org/2000/svg" xmlns:xlink="http://www.w3.org/1999/xlink" version="1.1"><path d="M0 193L100 115L200 151L300 199L400 181L500 157L600 163L700 175L800 139L900 121L900 0L800 0L700 0L600 0L500 0L400 0L300 0L200 0L100 0L0 0Z" fill="#9fb8dd"></path><path d="M0 319L100 277L200 301L300 319L400 343L500 349L600 283L700 301L800 301L900 307L900 119L800 137L700 173L600 161L500 155L400 179L300 197L200 149L100 113L0 191Z" fill="#97b5dd"></path><path d="M0 373L100 325L200 367L300 385L400 415L500 391L600 331L700 373L800 349L900 349L900 305L800 299L700 299L600 281L500 347L400 341L300 317L200 299L100 275L0 317Z" fill="#8eb2dd"></path><path d="M0 469L100 445L200 475L300 451L400 493L500 469L600 433L700 475L800 445L900 475L900 347L800 347L700 371L600 329L500 389L400 413L300 383L200 365L100 323L0 371Z" fill="#8eb2dd"></path><path d="M0 535L100 535L200 535L300 535L400 553L500 529L600 529L700 529L800 541L900 541L900 473L800 443L700 473L600 431L500 467L400 491L300 449L200 473L100 443L0 467Z" fill="#97b5dd"></path><path d="M0 601L100 601L200 601L300 601L400 601L500 601L600 601L700 601L800 601L900 601L900 539L800 539L700 527L600 527L500 527L400 551L300 533L200 533L100 533L0 533Z" fill="#9fb8dd"></path></svg>